<svg xmlns="http://www.w3.org/2000/svg" viewBox="0 0 24 24" id="iveco"><path d="M13.142 11.633c0-2.509 1.742-2.874 4.22-2.568.35.059.173.515.218 1.044 0 .365-.384.239-.87.239-1.114 0-1.653-.034-1.436 1.893.043.37.305.653.718.696 1.972.199 1.432-.445 1.588 1.066a.258.258 0 0 1-.218.261c-2.234 0-4.22.235-4.22-2.631zm-.587 1.284c.409 0 .215.603.261 1.044 0 .469-.536.169-3.373.261-1.612 0-.829-2.37-1.023-4.113 0-.566.457-1.023 1.023-1.023 2.713.088 3.373-.2 3.373.239v.762c0 .454-.586.181-2.176.261-.389 0-.22.449-.261.718 1.141.066 1.893-.22 1.893.239v.653c0 .447-.667.19-1.893.261.031.197-.121.696.261.696h1.915v.002zm-7.92 1.305c-1.347 0-1.04-1.772-2.046-4.83 0-.591.798-.144 1.849-.304.131 0 .239.087.261.196 1.211 4.903.669 4.5 1.872 0a.255.255 0 0 1 .24-.197c1.542.146 1.459-.955.13 4.329-.28 1.174-1.666.704-2.306.805v.001zM1.806 9.087c.486 0 .162.441.261 4.874a.252.252 0 0 1-.261.261C.642 14.152 0 14.402 0 13.961c.113-4.19-.242-4.874.261-4.874h1.545z"></path><path d="M19.713 9.065c-2.475.295-2.563 4.791 0 5.158 2.509.159 4.286.142 4.286-2.59 0-2.519-1.697-2.888-4.286-2.568zm1.502 3.917h-.566c-.826 0-.81-1.223-.718-2.045.045-.38.333-.697 1.001-.697.1.034.91-.084 1.001.697.099.885.105 2.045-.718 2.045z"></path></svg>